PathFileType	4	(X/Y/Z)	C:/Users/beibeiliu/ov580/test_trc/capture2\sequence.12_training_dense_left.trc
DataRate	CameraRate	NumFrames	NumMarkers	Units	OrigDataRate	OrigDataStartFrame	OrigNumFrames
120	120	12	19	mm	120	47	369
Frame#	Time	ThumbCMC			ThumbMCP			ThumbIP			ThumbTip			IndexMCP			IndexPIP			IndexTip			MiddleMCP			MiddlePIP			MiddleTip			RingMCP			RingPIP			RingTip			PinkyMCP			PinkyPIP			PinkyTip			BackHand1			BackHand2			BackHand3	
		X0	Y0	Z0	X1	Y1	Z1	X2	Y2	Z2	X3	Y3	Z3	X4	Y4	Z4	X5	Y5	Z5	X6	Y6	Z6	X7	Y7	Z7	X8	Y8	Z8	X9	Y9	Z9	X10	Y10	Z10	X11	Y11	Z11	X12	Y12	Z12	X13	Y13	Z13	X14	Y14	Z14	X15	Y15	Z15	X16	Y16	Z16	X17	Y17	Z17	X18	Y18	Z18	
46	0.383333	-102.162	58.0068	4.27501	-73.7647	48.6324	-10.7544	-58.1361	49.6183	-31.2056	-51.0306	47.9444	-57.0876	-98.0572	88.7882	-56.0635	-74.286	78.3768	-72.4166	-63.1997	46.692	-66.0346	-123.543	84.9593	-72.1517	-113.304	90.42	-99.7944	-103.626	91.9545	-122.757	-140.427	62.5156	-77.4729	-133.808	72.1416	-99.5008	-131.069	75.913	-125.429	-146.023	40.4221	-79.6765	-142.906	41.0197	-94.3485	-147.559	44.281	-116.649	-154.31	50.9361	-31.7597	-163.091	37.9791	-4.25572	-139.882	67.1522	-4.42579	
47	0.391667	-101.935	56.7107	6.06075	-78.1718	46.9845	-13.5621	-54.524	50.6902	-32.1538	-45.7746	48.8985	-53.2715	-96.0485	88.7444	-58.5802	-73.5458	79.16	-70.3535	-59.1278	48.6921	-64.5743	-125.363	82.0687	-70.4993	-116.171	87.1241	-98.7601	-102.47	92.5982	-123.117	-138.631	64.8445	-80.4014	-133.187	71.479	-99.6492	-130.725	77.5001	-126.111	-144.869	40.6966	-75.907	-143.177	40.0281	-97.8482	-148.42	45.6273	-119.884	-154.645	47.6542	-29.8805	-162.75	42.1821	-6.10562	-141.311	68.285	-4.49601	
48	0.4	-104.761	55.3994	7.79262	-78.7882	46.4357	-12.1247	-54.8374	50.4354	-30.7633	-49.916	48.0532	-55.7424	-97.5947	88.4602	-57.6052	-73.8176	76.0668	-72.9176	-60.5945	47.4521	-66.4482	-125.926	80.5013	-71.9429	-112.951	89.6045	-98.1317	-99.6579	93.2962	-124.087	-136.47	64.749	-75.6154	-135.261	69.1524	-103.339	-127.143	80.5904	-126.93	-146.306	39.1798	-79.9624	-143.11	41.7178	-100.324	-148.871	45.3893	-116.765	-157.075	47.5592	-30.952	-163.058	40.1321	-8.32051	-144.376	64.6072	-5.74444	
49	0.408333	-100.788	57.5172	5.42433	-79.0376	47.3082	-12.3474	-58.0774	49.799	-31.1028	-47.2514	49.5229	-54.9156	-95.5991	87.4693	-59.6775	-70.8086	74.189	-71.4301	-59.4879	47.875	-65.0218	-124.832	82.5303	-73.1078	-114.437	86.8528	-98.4587	-102.963	89.2328	-127.64	-138.744	64.4678	-78.4403	-133.338	71.2872	-102.933	-130.987	76.9715	-126.366	-144.496	40.812	-73.1194	-141.447	42.407	-96.2954	-152.353	44.9222	-118.46	-156.327	51.0342	-33.0467	-161.252	41.1728	-5.53659	-141.908	66.7428	-6.23643	
50	0.416667	-103.017	55.2326	8.54312	-77.0817	47.9933	-13.1739	-58.6766	48.8484	-31.1562	-44.823	49.7706	-53.1121	-96.2256	87.7253	-54.7875	-72.5013	72.7663	-74.2745	-59.2722	47.9956	-66.589	-124.104	81.9404	-72.9875	-114.411	87.6422	-99.2172	-104.71	89.4998	-124.092	-138.064	65.5715	-76.0367	-134.875	70.5002	-104.372	-129.976	78.9889	-128.664	-145.447	41.1152	-78.5444	-145.15	39.8598	-96.5453	-150.413	47.2555	-115.144	-156.24	51.1465	-30.9313	-164.676	42.0996	-7.61715	-142.058	67.9916	-6.86829	
51	0.425	-101.555	54.2807	7.97664	-74.3747	45.7937	-11.1293	-58.9815	46.2351	-32.8931	-45.8068	47.303	-58.1789	-94.5656	86.7162	-58.5658	-71.1879	72.4461	-73.239	-61.3294	41.6823	-66.411	-122.565	83.2858	-72.4431	-112.88	90.1088	-95.0673	-102.97	91.8376	-128.295	-136.055	69.1261	-76.4629	-132.557	75.0264	-102.228	-131.418	78.3356	-125.667	-148.173	40.8291	-76.5693	-144.53	44.1486	-99.7973	-148.307	50.7147	-118.111	-153.841	54.2288	-31.8673	-164.401	41.7279	-7.36634	-139.181	71.1602	-6.28654	
52	0.433333	-102.839	53.9512	3.35936	-78.226	43.194	-12.6746	-54.9162	45.6489	-38.2391	-48.359	43.0128	-59.9431	-95.0436	84.8352	-59.3978	-72.3952	70.0178	-75.0184	-64.6396	38.566	-67.2692	-121.948	85.2038	-76.2413	-111.564	91.3011	-95.5684	-99.0235	95.1144	-123.328	-138.589	66.8509	-76.409	-132.325	76.5936	-100.566	-130.624	82.9635	-126.033	-148.293	44.0747	-77.4376	-145.447	47.4559	-100.003	-155.102	54.4368	-120.11	-152.164	56.0635	-32.4912	-166.123	44.2397	-4.80484	-136.512	72.6411	-7.55088	
53	0.441667	-98.8403	51.4596	5.89754	-73.5436	41.6026	-17.9594	-54.5142	39.9919	-39.3046	-50.5853	37.3125	-60.7485	-91.9347	83.9637	-58.7838	-69.5829	66.5086	-75.0971	-63.282	38.5801	-68.8966	-115.825	88.4668	-73.2313	-107.953	92.6199	-98.8202	-98.6958	94.2579	-124.494	-133.39	74.1159	-75.433	-132.305	77.8951	-99.1008	-128.218	86.7612	-120.892	-147.268	50.7999	-74.9012	-145.395	53.6637	-97.3725	-153.68	60.5695	-115.906	-155.428	57.7137	-28.8788	-162.423	49.4724	-4.63361	-131.961	74.321	-6.28655	
54	0.45	-95.2431	51.2797	1.34552	-75.6128	37.2041	-17.9734	-56.2973	35.1831	-40.6813	-52.6557	32.6559	-63.2101	-88.7737	82.5388	-59.7542	-67.6042	61.5286	-76.9327	-65.4276	34.4952	-70.4545	-118.069	86.614	-72.66	-105.11	92.6112	-98.6529	-95.6372	95.622	-124.603	-135.894	72.8752	-74.9932	-133.136	80.5168	-101.466	-127.013	89.2132	-121.33	-148.743	54.3149	-76.3535	-148.36	56.7824	-96.4281	-153.077	64.2803	-117.087	-152.616	61.5851	-29.3692	-160.909	49.0259	-3.16987	-128.24	72.2153	-4.59082	
55	0.458333	-95.7556	47.0033	1.23618	-73.4809	33.1388	-21.4792	-60.6345	30.2777	-43.1806	-50.2593	28.1896	-67.1777	-87.8304	81.302	-58.2192	-69.4992	61.0837	-77.1587	-68.4246	30.5402	-71.5981	-112.677	88.7806	-69.6265	-102.128	94.8373	-95.9862	-97.0444	94.8154	-120.841	-131.599	76.9838	-70.0727	-130.185	85.5518	-100.258	-125.812	92.7365	-119.845	-150.197	57.3257	-73.3425	-147.784	60.8439	-92.1875	-156.546	68.4346	-117.994	-146.937	64.2066	-25.7794	-155.193	55.5157	-1.38737	-127.091	72.9365	-0.623697	
56	0.466667	-91.4478	45.8654	0.369501	-72.3612	30.0943	-21.8082	-57.2701	26.8899	-44.5813	-51.4466	24.8312	-66.6216	-80.6753	80.6532	-58.2619	-65.7999	60.5628	-76.311	-67.2884	30.7298	-72.973	-108.344	91.1143	-69.7951	-99.9956	94.5433	-96.5975	-93.4376	96.0659	-123.746	-129.218	79.5263	-68.9708	-127.143	88.5701	-98.1909	-120.59	98.3562	-119.809	-146.429	61.4834	-68.6386	-146.71	64.7943	-89.7302	-155.609	73.8684	-113.393	-146.736	69.1136	-28.7194	-156.437	57.9767	1.79345	-119.159	73.3323	-2.57523	
57	0.475	-92.1862	42.1767	2.63898	-75.5922	28.4804	-21.6469	-62.3794	26.2456	-48.5716	-57.0001	25.2715	-69.6946	-75.4962	78.0884	-59.6364	-66.9896	57.8115	-78.9218	-70.8963	27.3148	-73.1657	-104.772	92.1656	-68.61	-97.2514	95.2956	-91.1617	-87.7341	97.9101	-122.98	-124.058	85.6342	-71.7611	-121.232	93.3608	-94.1096	-117.561	99.9676	-114.978	-145.737	66.2835	-69.5918	-148.216	70.305	-92.4998	-154.939	80.7139	-108.515	-142.699	69.674	-24.9898	-147.905	62.6346	3.19	-117.153	73.2242	0.204172	
